<?xml version="1.0" encoding="utf-8"?>
<!-- Generator: Adobe Illustrator 25.1.0, SVG Export Plug-In . SVG Version: 6.00 Build 0)  -->
<svg version="1.1" id="Layer_1" xmlns="http://www.w3.org/2000/svg" xmlns:xlink="http://www.w3.org/1999/xlink" x="0px" y="0px"
	 viewBox="0 0 200 200" style="enable-background:new 0 0 200 200;" xml:space="preserve">
<style type="text/css">
	.st0{fill:#1172BA;}
	.st1{fill:#FFFFFF;}
</style>
<g>
	<g>
		<circle class="st0" cx="100" cy="99.78" r="100"/>
	</g>
	<g>
		<g>
			<path class="st1" d="M100,189.62c38.82,0,71.84-24.8,84.12-59.41H15.88C28.16,164.82,61.18,189.62,100,189.62z"/>
		</g>
	</g>
	<g>
		<path class="st0" d="M67.53,166.15v-20.28h4.29v16.74h8.69v3.53H67.53z"/>
		<path class="st0" d="M81.96,166.15v-20.28h13.66v3.54h-9.38v4.83h8.67v3.54h-8.67v4.84h9.42v3.53H81.96z"/>
		<path class="st0" d="M114.6,145.87v20.28h-3.7l-8.82-12.76h-0.15v12.76h-4.29v-20.28h3.76l8.75,12.75h0.18v-12.75H114.6z"/>
		<path class="st0" d="M123.93,166.15h-7.19v-20.28h7.25c2.04,0,3.8,0.41,5.27,1.21c1.47,0.81,2.6,1.97,3.4,3.48
			c0.8,1.51,1.19,3.32,1.19,5.43c0,2.11-0.4,3.93-1.19,5.45c-0.8,1.52-1.93,2.68-3.42,3.5
			C127.76,165.74,125.99,166.15,123.93,166.15z M121.03,162.48h2.72c1.27,0,2.34-0.23,3.2-0.68c0.87-0.45,1.52-1.16,1.96-2.11
			c0.44-0.95,0.66-2.19,0.66-3.7c0-1.5-0.22-2.72-0.66-3.67c-0.44-0.95-1.09-1.65-1.96-2.1c-0.86-0.45-1.93-0.67-3.2-0.67h-2.73
			V162.48z"/>
	</g>
	<g>
		<path class="st1" d="M106.93,35.77H66.67v60.53h39.01c7.17,0,13-5.83,13-13c0-3.98-1.8-7.55-4.63-9.93
			c2.83-2.39,4.63-5.95,4.63-9.94c0-7.17-5.83-13-13-13H81.33v19.87v6.14h24.36c3.78,0,6.86,3.08,6.86,6.87
			c0,3.78-3.08,6.86-6.86,6.86H72.81V41.91h34.12c11.17,0,20.26,9.09,20.26,20.26v23.18c0,11.17-9.09,20.26-20.26,20.26H66.67v6.14
			h40.26c14.55,0,26.39-11.84,26.39-26.39V62.16C133.33,47.61,121.49,35.77,106.93,35.77z M87.46,70.29V56.56h18.22
			c3.78,0,6.86,3.08,6.86,6.87c0,3.78-3.08,6.86-6.86,6.86H87.46z"/>
	</g>
</g>
</svg>
