<?xml version="1.0" encoding="utf-8"?>
<!-- Generator: Adobe Illustrator 25.1.0, SVG Export Plug-In . SVG Version: 6.00 Build 0)  -->
<svg version="1.1" id="Layer_1" xmlns="http://www.w3.org/2000/svg" xmlns:xlink="http://www.w3.org/1999/xlink" x="0px" y="0px"
	 viewBox="0 0 200 200" style="enable-background:new 0 0 200 200;" xml:space="preserve">
<style type="text/css">
	.st0{fill:#00A99D;}
	.st1{fill:#FFFFFF;}
</style>
<g>
	<g>
		<circle class="st0" cx="99.54" cy="99.78" r="100"/>
	</g>
	<g>
		<g>
			<path class="st1" d="M99.54,189.62c38.82,0,71.84-24.8,84.12-59.41H15.42C27.7,164.82,60.71,189.62,99.54,189.62z"/>
		</g>
	</g>
	<g>
		<path class="st0" d="M72.91,151.7c-0.08-0.8-0.42-1.42-1.02-1.86c-0.6-0.44-1.42-0.66-2.45-0.66c-0.7,0-1.29,0.1-1.77,0.29
			c-0.48,0.2-0.85,0.46-1.1,0.81c-0.25,0.34-0.38,0.73-0.38,1.17c-0.01,0.36,0.06,0.68,0.23,0.95c0.17,0.27,0.4,0.5,0.7,0.7
			c0.3,0.2,0.64,0.36,1.03,0.5c0.39,0.14,0.81,0.26,1.25,0.36l1.82,0.44c0.88,0.2,1.7,0.46,2.44,0.79c0.74,0.33,1.38,0.74,1.92,1.22
			c0.54,0.48,0.96,1.05,1.26,1.7c0.3,0.65,0.45,1.4,0.46,2.25c-0.01,1.24-0.32,2.32-0.95,3.22s-1.52,1.61-2.69,2.11
			c-1.17,0.5-2.58,0.75-4.23,0.75c-1.64,0-3.06-0.25-4.27-0.75c-1.21-0.5-2.16-1.25-2.83-2.23c-0.68-0.99-1.03-2.21-1.06-3.67h4.15
			c0.05,0.68,0.24,1.25,0.59,1.7s0.81,0.79,1.4,1.02s1.25,0.34,1.99,0.34c0.73,0,1.36-0.11,1.9-0.32c0.54-0.21,0.96-0.5,1.25-0.88
			c0.3-0.38,0.45-0.81,0.45-1.3c0-0.46-0.13-0.84-0.4-1.15c-0.27-0.31-0.66-0.57-1.17-0.79c-0.51-0.22-1.14-0.42-1.88-0.59
			l-2.21-0.55c-1.71-0.42-3.06-1.07-4.05-1.95c-0.99-0.88-1.48-2.08-1.48-3.57c-0.01-1.23,0.32-2.3,0.99-3.22
			c0.66-0.92,1.58-1.63,2.74-2.15s2.48-0.77,3.96-0.77c1.5,0,2.82,0.26,3.95,0.77s2,1.23,2.63,2.15c0.63,0.92,0.95,1.98,0.97,3.19
			H72.91z"/>
		<path class="st0" d="M83.34,166.15l-5.8-20.28h4.68l3.36,14.09h0.17l3.7-14.09h4.01l3.69,14.12h0.18l3.36-14.12h4.68l-5.8,20.28
			h-4.18l-3.86-13.26h-0.16l-3.85,13.26H83.34z"/>
		<path class="st0" d="M107.7,166.15h-4.59l7-20.28h5.53l6.99,20.28h-4.59l-5.08-15.64h-0.16L107.7,166.15z M107.41,158.18h10.85
			v3.35h-10.85V158.18z"/>
		<path class="st0" d="M123.66,166.15v-20.28h8c1.54,0,2.85,0.29,3.93,0.88c1.08,0.58,1.91,1.39,2.48,2.43
			c0.57,1.03,0.86,2.22,0.86,3.57s-0.29,2.54-0.87,3.56c-0.58,1.03-1.42,1.83-2.52,2.41s-2.43,0.86-3.99,0.86h-5.1v-3.44h4.41
			c0.82,0,1.51-0.14,2.04-0.43s0.94-0.69,1.21-1.2s0.4-1.1,0.4-1.77c0-0.67-0.13-1.26-0.4-1.77c-0.27-0.5-0.67-0.9-1.21-1.18
			s-1.23-0.42-2.06-0.42h-2.89v16.77H123.66z"/>
	</g>
	<g>
		<path class="st1" d="M106.47,35.77H66.21v60.53h39.01c7.17,0,13-5.83,13-13c0-3.98-1.8-7.55-4.63-9.93
			c2.83-2.39,4.63-5.95,4.63-9.94c0-7.17-5.83-13-13-13H80.86v19.87v6.14h24.36c3.78,0,6.86,3.08,6.86,6.87
			c0,3.78-3.08,6.86-6.86,6.86H72.35V41.91h34.12c11.17,0,20.26,9.09,20.26,20.26v23.18c0,11.17-9.09,20.26-20.26,20.26H66.21v6.14
			h40.26c14.55,0,26.39-11.84,26.39-26.39V62.16C132.86,47.61,121.02,35.77,106.47,35.77z M87,70.29V56.56h18.22
			c3.78,0,6.86,3.08,6.86,6.87c0,3.78-3.08,6.86-6.86,6.86H87z"/>
	</g>
</g>
</svg>
