<?xml version="1.0" encoding="utf-8"?>
<!-- Generator: Adobe Illustrator 23.0.1, SVG Export Plug-In . SVG Version: 6.00 Build 0)  -->
<svg version="1.1" id="Layer_1" xmlns="http://www.w3.org/2000/svg" xmlns:xlink="http://www.w3.org/1999/xlink" x="0px" y="0px"
	 viewBox="0 0 900 336" style="enable-background:new 0 0 900 336;" xml:space="preserve">
<style type="text/css">
	.st0{opacity:0.1;}
	.st1{fill:none;stroke:#4D4D4D;stroke-miterlimit:10;stroke-dasharray:2.8346,5.6693,2.8346;}
</style>
<g class="st0">
	<path class="st1" d="M766.8,0L449,183.4L131.3,0"/>
	<polyline class="st1" points="730.3,3.7 449,190.7 167.8,3.7 	"/>
	<polyline class="st1" points="693.7,7.3 449,198 204.3,7.3 	"/>
	<polyline class="st1" points="657.2,11 449,205.3 240.8,11 	"/>
	<polyline class="st1" points="620.7,14.7 449,212.6 277.3,14.7 	"/>
	<polyline class="st1" points="584.2,18.4 449,219.8 313.9,18.4 	"/>
	<polyline class="st1" points="547.7,22 449,227.1 350.4,22 	"/>
	<polyline class="st1" points="511.2,25.7 449,234.4 386.9,25.7 	"/>
	<polyline class="st1" points="474.7,29.4 449,241.7 423.4,29.4 	"/>
	<polyline class="st1" points="438.2,33 449,249 459.9,33 	"/>
	<polyline class="st1" points="401.6,36.7 449,256.3 496.4,36.7 	"/>
	<polyline class="st1" points="365.1,40.4 449,263.5 532.9,40.4 	"/>
	<polyline class="st1" points="328.6,44.1 449,270.8 569.4,44.1 	"/>
	<polyline class="st1" points="292.1,47.7 449,278.1 606,47.7 	"/>
	<polyline class="st1" points="255.6,51.4 449,285.4 642.5,51.4 	"/>
	<polyline class="st1" points="219.1,55.1 449,292.7 679,55.1 	"/>
	<polyline class="st1" points="182.6,58.7 449,299.9 715.5,58.7 	"/>
	<polyline class="st1" points="146.1,62.4 449,307.2 752,62.4 	"/>
	<polyline class="st1" points="109.5,66.1 449,314.5 788.5,66.1 	"/>
	<polyline class="st1" points="73,69.7 449,321.8 825,69.7 	"/>
	<polyline class="st1" points="36.5,73.4 449,329.1 861.5,73.4 	"/>
	<path class="st1" d="M0,77.1l449,259.2l449-259.2"/>
</g>
</svg>
