<?xml version="1.0" encoding="utf-8"?>
<!-- Generator: Adobe Illustrator 23.0.1, SVG Export Plug-In . SVG Version: 6.00 Build 0)  -->
<svg version="1.1" id="Layer_1" xmlns="http://www.w3.org/2000/svg" xmlns:xlink="http://www.w3.org/1999/xlink" x="0px" y="0px"
	 viewBox="0 0 650 190" style="enable-background:new 0 0 650 190;" xml:space="preserve">
<style type="text/css">
	.st0{fill:url(#SVGID_1_);}
	.st1{fill:#FFFFFF;}
	.st2{fill:#2C2F36;}
</style>
<g>
	<linearGradient id="SVGID_1_" gradientUnits="userSpaceOnUse" x1="0" y1="95.7456" x2="191.4912" y2="95.7456">
		<stop  offset="0" style="stop-color:#00A99D"/>
		<stop  offset="1" style="stop-color:#3FA9F5"/>
	</linearGradient>
	<path class="st0" d="M146.4,191.5H45.1C20.3,191.5,0,171.2,0,146.4V45.1C0,20.3,20.3,0,45.1,0h101.4c24.8,0,45.1,20.3,45.1,45.1
		v101.4C191.5,171.2,171.2,191.5,146.4,191.5z"/>
	<path class="st1" d="M104.5,47.8H53.6v76.5h49.3c9.1,0,16.4-7.4,16.4-16.4c0-5-2.3-9.5-5.8-12.5c3.6-3,5.8-7.5,5.8-12.6
		c0-9.1-7.4-16.4-16.4-16.4H72.2v25.1v7.8h30.8c4.8,0,8.7,3.9,8.7,8.7c0,4.8-3.9,8.7-8.7,8.7H61.4v-61h43.1
		c14.1,0,25.6,11.5,25.6,25.6v29.3c0,14.1-11.5,25.6-25.6,25.6H53.6v7.8h50.9c18.4,0,33.3-15,33.3-33.3V81.1
		C137.8,62.7,122.9,47.8,104.5,47.8z M79.9,91.4V74h23c4.8,0,8.7,3.9,8.7,8.7c0,4.8-3.9,8.7-8.7,8.7H79.9z"/>
</g>
<g>
	<path class="st2" d="M298,95.4c-2.3-1.4-4.8-2.1-7.4-2.2v-0.7c2.4-0.5,4.6-1.5,6.4-2.8c1.9-1.3,3.4-3,4.4-5c1.1-2,1.6-4.4,1.6-7.1
		c0-3.5-0.9-6.5-2.6-9.2c-1.7-2.7-4.3-4.8-7.7-6.3c-3.4-1.5-7.7-2.3-12.8-2.3h-27.7v69.3h29.6c5.2,0,9.6-0.8,13.1-2.5
		c3.5-1.7,6.2-3.9,8-6.8c1.8-2.9,2.7-6.2,2.7-9.8c0-3.4-0.7-6.3-2.2-8.8C302.2,98.7,300.3,96.8,298,95.4z M267,71.7h11.1
		c3.2,0,5.8,0.8,7.5,2.3s2.7,3.6,2.7,6.1c0,1.8-0.5,3.4-1.4,4.7s-2.2,2.3-3.7,3c-1.6,0.7-3.4,1.1-5.4,1.1H267V71.7z M287.9,114.8
		c-1.9,1.6-4.9,2.4-8.9,2.4H267V98.8h12.3c2.3,0,4.4,0.4,6.1,1.3c1.7,0.8,3,2,3.9,3.5c0.9,1.5,1.4,3.2,1.4,5.1
		C290.7,111.2,289.7,113.3,287.9,114.8z"/>
	<path class="st2" d="M347.7,80.7c-2.1-1.4-4.4-2.5-7.1-3.1c-2.7-0.7-5.4-1-8.3-1c-4.2,0-7.8,0.6-10.9,1.9c-3.1,1.3-5.7,3-7.7,5.3
		c-2,2.3-3.3,5-4,8.2L323,93c0.5-1.7,1.5-3.1,3-4.3c1.5-1.1,3.6-1.7,6.2-1.7c2.5,0,4.4,0.6,5.7,1.8c1.3,1.2,2,2.8,2,5V94
		c0,1.1-0.4,1.9-1.3,2.5c-0.8,0.6-2.2,1-4,1.3c-1.9,0.3-4.3,0.6-7.3,0.9c-2.6,0.2-5,0.7-7.4,1.3s-4.4,1.5-6.2,2.7
		c-1.8,1.2-3.3,2.8-4.3,4.7c-1.1,2-1.6,4.4-1.6,7.3c0,3.4,0.7,6.3,2.3,8.6c1.5,2.3,3.5,4,6.1,5.2c2.6,1.2,5.5,1.7,8.9,1.7
		c2.6,0,4.8-0.3,6.8-1c2-0.7,3.6-1.6,5-2.9c1.4-1.2,2.5-2.7,3.4-4.3h0.4v7.2h13.7V94.1c0-3.1-0.6-5.7-1.8-8
		C351.4,83.9,349.7,82.1,347.7,80.7z M340.1,110.6c0,1.8-0.5,3.5-1.4,4.9c-0.9,1.4-2.2,2.6-3.8,3.4c-1.6,0.8-3.5,1.3-5.6,1.3
		c-2.2,0-4-0.5-5.5-1.5c-1.4-1-2.1-2.5-2.1-4.5c0-1.4,0.3-2.5,1-3.4c0.7-0.9,1.7-1.6,2.9-2.2c1.3-0.5,2.7-0.9,4.4-1.2
		c0.8-0.1,1.7-0.2,2.6-0.4c1-0.1,1.9-0.3,2.9-0.5c1-0.2,1.8-0.4,2.6-0.6c0.8-0.2,1.4-0.5,1.8-0.8V110.6z"/>
	<path class="st2" d="M400.2,78.9c-2.7-1.6-5.8-2.4-9.4-2.4c-3.9,0-7.1,0.9-9.8,2.7s-4.6,4.2-5.8,7.2h-0.6v-9.2h-13.7v52h14.4V99.1
		c0-2.2,0.4-4.1,1.3-5.7c0.8-1.6,2-2.8,3.5-3.6c1.5-0.8,3.2-1.3,5.1-1.3c2.9,0,5.2,0.9,6.8,2.7c1.6,1.8,2.5,4.3,2.4,7.5v30.5h14.4
		V96.1c0-4-0.7-7.5-2.2-10.4C405,82.7,402.9,80.5,400.2,78.9z"/>
	<polygon class="st2" points="463.7,77.2 447.1,77.2 430.5,96.9 429.7,96.9 429.7,59.9 415.3,59.9 415.3,129.2 429.7,129.2 
		429.7,112.7 433.6,108.2 447.8,129.2 464.7,129.2 444.4,99.7 	"/>
	<path class="st2" d="M509,64c-5-2.8-11-4.1-18-4.1h-24.8v69.3h24.6c7,0,13.1-1.4,18.2-4.2c5.1-2.8,9-6.8,11.7-11.9
		c2.7-5.2,4.1-11.4,4.1-18.6c0-7.2-1.4-13.4-4.1-18.5C517.9,70.7,514,66.8,509,64z M507.8,107.1c-1.5,3.3-3.7,5.7-6.7,7.2
		c-3,1.5-6.6,2.3-10.9,2.3h-9.3V72.4h9.3c4.3,0,8,0.8,10.9,2.3c3,1.5,5.2,3.9,6.7,7.2c1.5,3.2,2.3,7.4,2.3,12.6
		C510.1,99.6,509.3,103.8,507.8,107.1z"/>
	<polygon class="st2" points="545.4,100.5 575.1,100.5 575.1,88.5 545.4,88.5 545.4,71.9 577.5,71.9 577.5,59.9 530.8,59.9 
		530.8,129.2 577.6,129.2 577.6,117.1 545.4,117.1 	"/>
	<polygon class="st2" points="584.4,129.2 599,129.2 599,100.5 627.2,100.5 627.2,88.5 599,88.5 599,71.9 630.3,71.9 630.3,59.9 
		584.4,59.9 	"/>
	<rect x="635.3" y="59.9" class="st2" width="14.7" height="69.3"/>
</g>
</svg>
