<?xml version="1.0" encoding="utf-8"?>
<!-- Generator: Adobe Illustrator 23.0.1, SVG Export Plug-In . SVG Version: 6.00 Build 0)  -->
<svg version="1.1" id="Layer_1" xmlns="http://www.w3.org/2000/svg" xmlns:xlink="http://www.w3.org/1999/xlink" x="0px" y="0px"
	 viewBox="0 0 50 60" style="enable-background:new 0 0 50 60;" xml:space="preserve">
<style type="text/css">
	.st0{fill:#FFFFFF;}
</style>
<g>
	<g>
		<path class="st0" d="M0,59.9V51h3.5c0.6,0,1.2,0.1,1.6,0.3c0.4,0.2,0.8,0.5,1,0.8c0.2,0.3,0.3,0.7,0.3,1.2c0,0.3-0.1,0.7-0.2,0.9
			c-0.1,0.3-0.3,0.5-0.6,0.6c-0.2,0.2-0.5,0.3-0.8,0.4v0.1c0.3,0,0.6,0.1,0.9,0.3C6,55.7,6.3,56,6.5,56.3c0.2,0.3,0.3,0.7,0.3,1.1
			c0,0.5-0.1,0.9-0.3,1.3c-0.2,0.4-0.6,0.7-1,0.9c-0.4,0.2-1,0.3-1.6,0.3H0z M1.8,54.7h1.4c0.3,0,0.5,0,0.7-0.1
			c0.2-0.1,0.4-0.2,0.5-0.4c0.1-0.2,0.2-0.4,0.2-0.6c0-0.3-0.1-0.6-0.3-0.8c-0.2-0.2-0.5-0.3-0.9-0.3H1.8V54.7z M1.8,58.3h1.5
			c0.5,0,0.9-0.1,1.1-0.3c0.2-0.2,0.4-0.5,0.4-0.8c0-0.2-0.1-0.5-0.2-0.6c-0.1-0.2-0.3-0.3-0.5-0.4C3.9,56,3.7,56,3.4,56H1.8V58.3z"
			/>
		<path class="st0" d="M9.1,60c-0.4,0-0.8-0.1-1.1-0.2c-0.3-0.1-0.6-0.4-0.8-0.7C7.1,58.8,7,58.5,7,58c0-0.4,0.1-0.7,0.2-0.9
			c0.1-0.3,0.3-0.5,0.5-0.6c0.2-0.2,0.5-0.3,0.8-0.3C8.8,56.1,9.1,56,9.4,56c0.4,0,0.7-0.1,0.9-0.1c0.2,0,0.4-0.1,0.5-0.2
			c0.1-0.1,0.2-0.2,0.2-0.3v0c0-0.3-0.1-0.5-0.3-0.6c-0.2-0.2-0.4-0.2-0.7-0.2c-0.3,0-0.6,0.1-0.8,0.2c-0.2,0.1-0.3,0.3-0.4,0.5
			l-1.7-0.1c0.1-0.4,0.3-0.8,0.5-1.1c0.2-0.3,0.6-0.5,1-0.7c0.4-0.2,0.9-0.2,1.4-0.2c0.4,0,0.7,0,1,0.1c0.3,0.1,0.6,0.2,0.9,0.4
			c0.3,0.2,0.5,0.4,0.6,0.7c0.2,0.3,0.2,0.6,0.2,1v4.5h-1.7V59h-0.1c-0.1,0.2-0.2,0.4-0.4,0.5c-0.2,0.2-0.4,0.3-0.6,0.4
			C9.8,60,9.5,60,9.1,60z M9.7,58.7c0.3,0,0.5-0.1,0.7-0.2c0.2-0.1,0.4-0.3,0.5-0.4c0.1-0.2,0.2-0.4,0.2-0.6v-0.7
			c-0.1,0-0.1,0.1-0.2,0.1c-0.1,0-0.2,0.1-0.3,0.1c-0.1,0-0.2,0-0.4,0.1c-0.1,0-0.2,0-0.3,0c-0.2,0-0.4,0.1-0.6,0.2
			c-0.2,0.1-0.3,0.2-0.4,0.3c-0.1,0.1-0.1,0.3-0.1,0.4c0,0.3,0.1,0.4,0.3,0.6C9.2,58.7,9.4,58.7,9.7,58.7z"/>
		<path class="st0" d="M15.5,56v3.8h-1.8v-6.7h1.7v1.2h0.1c0.1-0.4,0.4-0.7,0.7-0.9c0.3-0.2,0.8-0.3,1.2-0.3c0.5,0,0.8,0.1,1.2,0.3
			c0.3,0.2,0.6,0.5,0.8,0.9c0.2,0.4,0.3,0.8,0.3,1.3v4.2h-1.8V56c0-0.4-0.1-0.7-0.3-1c-0.2-0.2-0.5-0.3-0.9-0.3
			c-0.2,0-0.5,0.1-0.6,0.2c-0.2,0.1-0.3,0.3-0.4,0.5C15.5,55.5,15.5,55.7,15.5,56z"/>
		<path class="st0" d="M20.5,59.9V51h1.8v8.9H20.5z M22.1,58l0-2.2h0.3l2.1-2.5h2.1l-2.8,3.3h-0.4L22.1,58z M24.6,59.9L22.7,57
			l1.2-1.3l2.8,4.2H24.6z"/>
		<path class="st0" d="M30,59.9h-3.1V51H30c0.9,0,1.6,0.2,2.3,0.5c0.6,0.4,1.1,0.9,1.5,1.5c0.3,0.7,0.5,1.5,0.5,2.4
			c0,0.9-0.2,1.7-0.5,2.4c-0.3,0.7-0.8,1.2-1.5,1.5C31.6,59.7,30.9,59.9,30,59.9z M28.7,58.3h1.2c0.5,0,1-0.1,1.4-0.3
			c0.4-0.2,0.7-0.5,0.8-0.9c0.2-0.4,0.3-1,0.3-1.6c0-0.7-0.1-1.2-0.3-1.6c-0.2-0.4-0.5-0.7-0.8-0.9c-0.4-0.2-0.8-0.3-1.4-0.3h-1.2
			V58.3z"/>
		<path class="st0" d="M35,59.9V51h5.9v1.5h-4v2.1h3.7v1.5h-3.7v2.1h4v1.5H35z"/>
		<path class="st0" d="M41.7,59.9V51h5.8v1.5h-3.9v2.1h3.5v1.5h-3.5v3.7H41.7z"/>
		<path class="st0" d="M50,51v8.9h-1.8V51H50z"/>
	</g>
</g>
<path class="st0" d="M28.1,0H10v27.9h17.6c3.2,0,5.9-2.7,5.9-6c0-1.8-0.8-3.5-2.1-4.6c1.3-1.1,2.1-2.7,2.1-4.6c0-3.3-2.6-6-5.9-6
	h-11v9.2v2.8h11c1.7,0,3.1,1.4,3.1,3.2c0,1.7-1.4,3.2-3.1,3.2H12.8V2.8h15.4c5,0,9.1,4.2,9.1,9.3v10.7c0,5.1-4.1,9.3-9.1,9.3H10V35
	h18.1C34.7,35,40,29.5,40,22.8V12.2C40,5.5,34.7,0,28.1,0z M19.4,15.9V9.6h8.2c1.7,0,3.1,1.4,3.1,3.2c0,1.7-1.4,3.2-3.1,3.2H19.4z"
	/>
</svg>
